PathFileType	4	(X/Y/Z)	stereocamera_test1.trc
DataRate	CameraRate	NumFrames	NumMarkers	Units	OrigDataRate	OrigDataStartFrame	OrigNumFrames
28.773259820813234	28.773259820813234	21	15	mm	28.773259820813234	294	335
Frame#	Time	JOINT_NECK			JOINT_RIGHT_CLAVICLE			JOINT_LEFT_CLAVICLE			JOINT_RIGHT_SHOULDER			JOINT_LEFT_SHOULDER			JOINT_RIGHT_ELBOW			JOINT_LEFT_ELBOW			JOINT_LEFT_WRIST			JOINT_RIGHT_WRIST			JOINT_SPINE_3			JOINT_SPINE_2			JOINT_SPINE_1			JOINT_PELVIS			JOINT_RIGHT_HIP			JOINT_LEFT_HIP
		X1	Y1	Z1	X2	Y2	Z2	X3	Y3	Z3	X4	Y4	Z4	X5	Y5	Z5	X6	Y6	Z6	X7	Y7	Z7	X8	Y8	Z8	X9	Y9	Z9	X10	Y10	Z10	X11	Y11	Z11	X12	Y12	Z12	X13	Y13	Z13	X14	Y14	Z14	X15	Y15	Z15

294	1749651081.081000	54.515990	9.391502	427.973180	14.740452	3.260605	509.594560	64.719774	9.821165	273.330840	-60.358750	-8.144870	856.385350	153.155860	23.258053	449.959400	-189.806680	-175.270110	740.595000	246.902210	-146.097620	389.700000	111.480474	-46.876483	327.248250	-281.564740	-76.968215	567.582200	71.847110	-64.165510	532.075170	74.571500	-136.948560	511.507630	97.316530	-252.971260	592.458370	77.919220	-265.197130	480.729460	nan	nan	nan	nan	nan	nan
295	1749651081.115000	64.634815	10.049976	519.202950	17.487124	1.765415	573.579000	76.885430	12.722094	347.463670	-59.706677	-8.813828	835.045200	159.404490	20.896636	465.386570	-190.993620	-175.882600	743.316700	240.792140	-142.297770	369.631350	117.629750	-60.968563	309.035030	-303.799570	-86.400360	564.883200	84.792920	-75.578170	592.993000	86.492150	-151.888100	561.457340	105.213440	-258.148970	596.374600	92.722500	-292.303060	528.304800	nan	nan	nan	nan	nan	nan
296	1749651081.148000	80.679450	11.293903	627.641900	22.219963	2.924196	654.741400	101.303210	15.126042	479.754750	-54.686310	-4.220724	825.894830	173.073260	20.429842	519.226100	-193.617340	-176.961560	746.775100	238.378450	-130.959420	356.616850	124.923795	-78.793116	288.300300	-323.036250	-95.675156	566.405530	97.734220	-87.327580	629.981340	103.726245	-173.769300	598.695340	118.475564	-271.191030	595.503300	117.453960	-332.037480	561.044040	nan	nan	nan	nan	nan	nan
297	1749651081.182000	93.137940	11.768304	687.499600	30.041750	4.071437	730.305800	133.486700	15.443131	604.663300	-47.026840	-1.799732	807.603900	191.362250	19.481570	583.921970	-198.743750	-178.443250	760.506000	247.028110	-126.988530	363.582800	126.101000	-91.837240	269.442230	-338.241300	-106.817834	569.794500	101.991884	-88.566220	670.984200	103.028060	-171.529650	622.947600	111.683175	-259.481820	601.368250	111.874565	-331.303180	589.291300	nan	nan	nan	nan	nan	nan
298	1749651081.215000	99.077420	10.106772	712.707760	32.038300	4.809648	771.705750	154.798050	15.217744	665.461960	-44.974446	-0.528246	803.353670	205.317530	18.363751	621.213730	-199.570300	-181.592640	765.995800	244.982720	-123.025330	354.790360	130.532010	-103.871610	268.610700	-346.386250	-119.468420	577.359900	108.815610	-100.290460	684.390660	110.974000	-189.226210	624.138200	118.809670	-277.495380	591.508270	125.124290	-362.827300	588.059250	nan	nan	nan	nan	nan	nan
299	1749651081.249000	102.491040	10.813594	724.126940	32.920000	6.999984	786.192500	164.606210	15.050456	691.743700	-45.015640	1.114160	800.973530	213.914810	18.327579	635.811150	-200.061720	-185.555550	770.286900	251.291250	-124.432795	364.835100	129.152970	-107.909470	266.558050	-351.468920	-127.052810	583.350100	107.543400	-99.652320	693.181600	107.499680	-194.257970	650.954250	111.028700	-282.033860	615.277200	115.109630	-375.254960	616.173300	nan	nan	nan	nan	nan	nan
300	1749651081.282000	103.861260	11.333063	724.421500	33.214770	6.403685	790.451100	170.084610	14.999650	703.054600	-45.276190	1.616329	798.313400	219.262020	17.792806	641.449870	-198.772130	-187.958800	774.139000	256.739350	-125.799920	376.070980	125.422580	-108.046740	266.985900	-353.885700	-131.995930	587.815900	105.601340	-99.873096	692.946850	105.374575	-199.075850	665.076550	105.388090	-288.180950	633.121850	108.912220	-386.029630	631.125500	nan	nan	nan	nan	nan	nan
301	1749651081.315000	103.652700	11.744715	718.119400	33.222800	5.920425	793.163100	172.398200	15.085630	703.549100	-45.857700	1.546308	797.329100	223.397610	18.252216	646.851840	-195.586580	-190.114990	775.244000	262.811030	-130.178120	385.347840	119.445900	-106.380940	272.801550	-353.800240	-134.483160	591.559400	105.333630	-102.574420	687.052600	103.012220	-200.516760	647.605900	101.701900	-288.993030	616.046000	106.042500	-389.253100	614.377700	nan	nan	nan	nan	nan	nan
302	1749651081.349000	102.497930	10.009229	709.302700	32.798886	5.509287	786.042450	173.723470	15.096843	695.597770	-47.004286	0.662297	795.612600	225.190850	18.417240	644.425500	-196.595190	-195.241000	779.715600	264.982550	-131.098720	392.520700	110.867605	-102.930486	279.754730	-349.223050	-133.647320	594.488740	104.525630	-105.353600	679.458000	100.996055	-204.730820	634.543540	98.210740	-292.999120	597.779870	102.241030	-393.130150	592.144600	nan	nan	nan	nan	nan	nan
303	1749651081.382000	103.478410	12.658156	704.243240	35.916600	7.006958	761.824900	173.307340	18.802203	688.155000	-41.263916	0.332370	793.522900	224.612220	23.455992	643.892900	-196.959020	-195.133160	775.546400	267.042000	-129.785700	399.967580	102.588820	-99.719020	283.652780	-343.523170	-130.107550	596.803200	103.681065	-104.751080	673.597900	96.563910	-198.887050	603.227260	93.945220	-288.967430	575.662800	98.956030	-394.135400	585.249500	nan	nan	nan	nan	nan	nan
304	1749651081.416000	105.749810	14.383577	699.941300	40.019743	8.014634	744.117300	172.145900	23.000672	682.379660	-34.568284	0.373259	792.743270	223.270490	27.792163	644.019400	-192.989570	-193.030800	768.501500	267.342980	-127.901850	404.310100	92.364810	-97.778940	287.344340	-338.442800	-124.659166	602.786400	102.871850	-101.906700	669.056600	86.647990	-182.625160	545.752500	86.473740	-272.774430	536.391200	93.745250	-390.010700	577.475100	nan	nan	nan	nan	nan	nan
305	1749651081.449000	107.006450	17.159253	697.712500	42.311247	10.465845	734.124200	170.611780	25.295481	677.560500	-31.317650	2.064586	792.364840	220.655650	29.727198	638.893400	-187.430440	-189.216610	768.247100	266.300200	-126.592580	405.777360	81.613840	-96.242650	286.561280	-328.647170	-121.193600	601.720700	102.284715	-98.024100	666.641400	74.103385	-153.214220	460.356470	77.317040	-240.601470	473.508420	91.711820	-376.119640	561.839700	nan	nan	nan	nan	nan	nan
306	1749651081.483000	105.385944	18.811539	695.726900	41.215654	11.927232	728.529450	167.362970	26.439040	675.048500	-30.084651	3.131107	793.622900	218.865220	31.198822	638.850030	-182.996050	-186.130610	765.754640	263.617100	-123.228915	408.206460	74.625105	-96.096530	285.831450	-317.680330	-115.701000	601.482100	101.832785	-95.316190	665.132000	59.968907	-123.886910	377.937100	65.722756	-202.626350	406.839730	90.928674	-372.959940	570.196870	nan	nan	nan	nan	nan	nan
307	1749651081.516000	104.008466	19.620575	694.613200	40.064520	12.673110	725.948150	164.942180	26.777484	673.216760	-31.833656	3.867284	794.681670	217.098010	32.244958	639.460560	-180.587710	-185.385150	769.239660	258.709130	-121.573925	407.225970	68.448775	-96.719820	288.191170	-302.120630	-111.450700	593.645500	101.525076	-93.672810	664.299400	49.030807	-98.220590	307.442670	58.523983	-175.316660	359.774800	91.639500	-364.973100	568.093100	nan	nan	nan	nan	nan	nan
308	1749651081.550000	100.750360	16.183533	692.210800	35.327120	11.195593	734.052840	162.960100	23.086354	670.292500	-39.114540	4.893184	797.256900	215.993460	26.994728	632.848800	-181.122480	-183.524430	774.881360	253.913500	-119.594690	405.525100	63.934950	-97.445310	290.182380	-287.683300	-108.108400	587.891200	99.498520	-92.842950	664.466000	39.696080	-79.790050	258.864430	52.279610	-156.159430	332.999470	89.678995	-358.858400	575.903200	nan	nan	nan	nan	nan	nan
309	1749651081.583000	100.764480	15.417829	692.251700	33.269558	10.109909	695.081900	161.792840	20.261772	668.585960	-39.885886	5.322814	798.599200	214.311470	23.334920	626.622860	-182.086470	-182.494160	776.483060	249.948590	-119.028400	405.007570	60.998738	-97.841784	291.409580	-276.792620	-106.956030	585.655300	98.263614	-90.969780	665.270500	33.490360	-66.969220	226.367430	65.056846	-194.990440	442.832100	86.125776	-351.705300	580.112760	nan	nan	nan	nan	nan	nan
310	1749651081.617000	98.914470	15.039340	691.960630	32.736890	9.089038	710.469370	161.225700	18.552415	667.806200	-41.744247	5.768627	801.072840	215.072620	21.447375	631.437960	-183.192300	-183.590000	782.644400	244.677620	-117.318540	399.756520	57.218708	-97.897000	289.757900	-267.188400	-107.074834	583.801750	95.720240	-91.715010	666.064440	29.119728	-59.703007	206.622900	56.625362	-181.639270	409.041400	80.059020	-349.578620	576.416800	nan	nan	nan	nan	nan	nan
311	1749651081.650000	99.870670	13.056241	692.398500	32.821216	8.505933	725.190700	160.901900	15.864491	666.847770	-41.318280	5.803332	802.550900	215.896820	19.214056	633.593560	-181.821120	-184.094250	785.012070	239.479780	-115.721110	395.480930	53.030483	-97.682910	286.464120	-258.891220	-108.455144	578.921440	94.369780	-90.798520	667.825200	26.633097	-54.770640	195.643630	52.084353	-167.481820	379.903900	77.312170	-343.505000	574.123260	nan	nan	nan	nan	nan	nan
312	1749651081.683000	98.792320	11.759542	693.344950	30.331954	7.339813	685.608270	160.881670	14.266200	666.578000	-43.302488	4.641607	803.924600	214.771600	17.800413	629.857800	-178.622700	-185.698690	787.015300	236.844420	-115.150380	396.792000	53.543600	-95.971780	287.755300	-256.083280	-109.717295	580.705800	93.740344	-92.176500	668.678300	25.524326	-53.511314	190.703210	49.955755	-159.134660	357.365640	78.760830	-346.033700	574.053050	nan	nan	nan	nan	nan	nan
313	1749651081.717000	98.242690	11.110954	694.727400	29.559264	7.460922	711.191400	161.039890	13.564691	666.836740	-45.312820	3.531560	810.287200	214.390040	16.673736	627.173540	-169.096710	-179.780330	746.057700	235.461350	-114.806810	397.758280	50.152022	-92.311380	288.712020	-256.474760	-114.900720	595.577240	97.074040	-96.459426	666.391400	27.172213	-55.727202	191.199140	66.734850	-205.757590	467.205670	89.924640	-357.768330	574.158100	nan	nan	nan	nan	nan	nan
314	1749651081.750000	98.076224	10.969862	696.143150	29.401708	7.316157	673.858700	161.282930	13.493829	667.347670	-43.666303	4.030302	810.353040	212.796000	16.532690	625.178750	-172.559370	-178.347380	754.416800	234.721060	-114.566570	398.104600	47.392868	-89.951515	290.907400	-247.356030	-110.833970	575.956700	99.568054	-97.497076	665.419940	32.016970	-64.476594	215.203880	84.333090	-247.144790	546.872100	97.193570	-364.105640	572.882500	nan	nan	nan	nan	nan	nan
